<?xml version="1.0" standalone="no"?><!DOCTYPE svg PUBLIC "-//W3C//DTD SVG 1.1//EN" "http://www.w3.org/Graphics/SVG/1.1/DTD/svg11.dtd"><svg t="1737769353169" class="icon" viewBox="0 0 1024 1024" version="1.1" xmlns="http://www.w3.org/2000/svg" p-id="17345" xmlns:xlink="http://www.w3.org/1999/xlink" width="40" height="40"><path d="M840.197689 327.094044c-65.934222 5.3248-504.519111-11.360711-633.986845-8.430933-23.6544 0.864711-34.56 10.3424-36.676266 31.243378-8.311467 65.860267-9.261511 150.243556-18.346667 203.411911-6.616178 38.718578-10.825956 74.353778-22.402844 113.880178-23.506489-79.342933-58.692267-412.188444-58.692267-412.188445-4.852622-31.044267 10.695111-60.137244 41.739378-64.989866L762.026667 95.038578c31.038578-4.852622 50.335289 15.183644 59.300977 53.111466l18.870045 178.944z" fill="#2671F7" p-id="17346"></path><path d="M889.361067 393.454933H237.038933c-31.419733 0-56.888889 25.469156-56.888889 56.888889v65.450667h766.1056V450.343822c-0.005689-31.419733-25.480533-56.888889-56.894577-56.888889zM180.150044 596.354844v271.172267c0 31.414044 25.469156 56.888889 56.888889 56.888889h652.327823c31.414044 0 56.888889-25.474844 56.888888-56.888889v-271.172267H180.150044zM841.955556 843.377778h-211.911112l59.733334-116.622222h211.911111l-59.733333 116.622222z" fill="#3B78FF" p-id="17347"></path><path d="M123.096178 644.295111l-14.808178-84.093155-18.688-136.971378-19.114667-164.5568c-6.007467-37.757156 12.367644-64.785067 43.531378-68.807111l547.083378-79.883378" fill="#FFFFFF" opacity=".1" p-id="17348"></path><path d="M92.330667 444.814222l-21.845334-186.140444c-6.007467-37.757156 12.367644-64.785067 43.531378-68.807111l239.388445-34.952534" fill="#53BDFC" p-id="17349"></path></svg>