<?xml version="1.0" standalone="no"?><!DOCTYPE svg PUBLIC "-//W3C//DTD SVG 1.1//EN" "http://www.w3.org/Graphics/SVG/1.1/DTD/svg11.dtd"><svg t="1741185641818" class="icon" viewBox="0 0 1109 1024" version="1.1" xmlns="http://www.w3.org/2000/svg" p-id="4780" xmlns:xlink="http://www.w3.org/1999/xlink" width="43.3203125" height="40"><path d="M726.028552 88.999622v-3.413333a3.034074 3.034074 0 0 0 0 3.413333z" fill="#8BAEF7" p-id="4781"></path><path d="M1024.505553 604.476101V128.000111A128.252824 128.252824 0 0 0 896.505568 0.000126H383.810323a127.620725 127.620725 0 0 0-120.667639 85.586163h-49.809377A128.252824 128.252824 0 0 0 85.333323 213.586273v391.395507A128.189614 128.189614 0 0 0 0 721.603988v178.31504A128.189614 128.189614 0 0 0 127.810355 1024h853.333228a128.252824 128.252824 0 0 0 127.999984-127.936774v-170.666646a124.460232 124.460232 0 0 0-84.638014-120.920479zM255.810339 597.586225H170.666646V213.586273a42.666661 42.666661 0 0 1 42.413822-42.413822h42.413821z m683.80436 0H676.345596a43.741229 43.741229 0 0 0-41.086415 28.065182 85.459743 85.459743 0 0 1-161.817264 0.12642 43.045921 43.045921 0 0 0-41.086415-28.065182H340.701193V128.000111a42.666661 42.666661 0 0 1 42.413821-42.413822h514.022653a42.666661 42.666661 0 0 1 42.413822 42.413822z" fill="#467CFD" p-id="4782"></path><path d="M812.310023 213.586273H469.333275a42.413822 42.413822 0 0 0 0 84.890854h342.913538a42.413822 42.413822 0 1 0 0-84.890854zM812.310023 384.695388H469.333275a42.413822 42.413822 0 0 0 0 84.890853h342.913538a42.413822 42.413822 0 1 0 0-84.890853z" fill="#8BAEF7" p-id="4783"></path></svg>