<svg width="40" height="55" viewBox="0 0 40 55" fill="none" xmlns="http://www.w3.org/2000/svg">
<path d="M35.1191 0H4.11914C1.91 0 0.119141 1.79086 0.119141 4V51C0.119141 53.2091 1.91 55 4.11914 55H35.1191C37.3283 55 39.1191 53.2091 39.1191 51V4C39.1191 1.79086 37.3283 0 35.1191 0Z" fill="url(#paint0_linear_8162_10154)"/>
<path d="M19.6191 41C27.075 41 33.1191 34.9558 33.1191 27.5C33.1191 20.0442 27.075 14 19.6191 14C12.1633 14 6.11914 20.0442 6.11914 27.5C6.11914 34.9558 12.1633 41 19.6191 41Z" fill="white"/>
<path d="M23.6131 29.464C24.4283 28.6118 24.9757 27.5394 25.1878 26.3794C25.3998 25.2193 25.2672 24.0226 24.8063 22.9371C24.3454 21.8517 23.5765 20.9251 22.5946 20.2721C21.6127 19.619 20.4609 19.2681 19.2817 19.2627C18.1024 19.2573 16.9475 19.5977 15.9596 20.2417C14.9718 20.8858 14.1944 21.8053 13.7236 22.8865C13.2529 23.9677 13.1093 25.1632 13.3108 26.3251C13.5122 27.487 14.0498 28.5644 14.8571 29.424L12.0241 32.256L14.2881 32.595L14.6271 34.859L18.2431 31.242C18.8895 31.3526 19.5495 31.3566 20.1971 31.254L23.7971 34.854L24.1362 32.59L26.4001 32.251L23.6131 29.464ZM19.2541 22.304C19.8464 22.3038 20.4254 22.4793 20.9179 22.8082C21.4104 23.1371 21.7943 23.6047 22.021 24.1518C22.2478 24.6989 22.3072 25.301 22.1917 25.8818C22.0762 26.4627 21.791 26.9963 21.3722 27.4151C20.9534 27.8339 20.4199 28.119 19.839 28.2345C19.2581 28.35 18.6561 28.2906 18.1089 28.0639C17.5618 27.8372 17.0942 27.4533 16.7653 26.9608C16.4364 26.4682 16.261 25.8892 16.2612 25.297C16.2614 24.5033 16.5768 23.7422 17.1381 23.1809C17.6993 22.6197 18.4604 22.3043 19.2541 22.304Z" fill="url(#paint1_linear_8162_10154)"/>
<defs>
<linearGradient id="paint0_linear_8162_10154" x1="19.6191" y1="0" x2="19.6191" y2="55" gradientUnits="userSpaceOnUse">
<stop stop-color="#FFD878"/>
<stop offset="1" stop-color="#FF9752"/>
</linearGradient>
<linearGradient id="paint1_linear_8162_10154" x1="19.2121" y1="19.2626" x2="19.2121" y2="34.859" gradientUnits="userSpaceOnUse">
<stop stop-color="#FFD878"/>
<stop offset="1" stop-color="#FF9752"/>
</linearGradient>
</defs>
</svg>
