<svg width="376" height="331" viewBox="0 0 376 331" fill="none" xmlns="http://www.w3.org/2000/svg">
<path d="M375.119 0H0.119141V303H375.119V0Z" fill="url(#paint0_linear_110_179)"/>
<mask id="mask0_110_179" style="mask-type:luminance" maskUnits="userSpaceOnUse" x="0" y="0" width="376" height="303">
<path d="M375.119 0H0.119141V303H375.119V0Z" fill="white"/>
</mask>
<g mask="url(#mask0_110_179)">
<path d="M18.1191 101C14.0578 101.001 10.0066 100.593 6.02714 99.781C-1.64782 98.2092 -8.93817 95.1416 -15.4279 90.753C-25.0746 84.2405 -32.6256 75.0701 -37.1659 64.353C-38.7014 60.7234 -39.8738 56.9507 -40.6659 53.09C-42.2911 45.1106 -42.2911 36.8854 -40.6659 28.906C-39.0941 21.231 -36.0264 13.9407 -31.6379 7.451C-25.1254 -2.19573 -15.955 -9.74672 -5.23786 -14.287C-1.60825 -15.8226 2.16448 -16.995 6.02514 -17.787C14.0046 -19.4123 22.2297 -19.4123 30.2091 -17.787C37.8841 -16.2152 45.1744 -13.1475 51.6641 -8.759C61.3108 -2.2465 68.8618 6.92388 73.4021 17.641C74.9377 21.2706 76.11 25.0434 76.9021 28.904C78.5274 36.8834 78.5274 45.1086 76.9021 53.088C75.3303 60.7626 72.2626 68.0526 67.8741 74.542C61.3616 84.1887 52.1913 91.7397 41.4741 96.28C37.8445 97.8156 34.0718 98.988 30.2111 99.78C26.2317 100.592 22.1806 101.001 18.1191 101ZM18.0971 28.407L5.52614 40.978L18.0971 53.549L30.6681 40.978L18.0971 28.407Z" fill="url(#paint1_linear_110_179)"/>
<g opacity="0.2">
<path d="M18.1191 100.5C50.9801 100.5 77.6191 73.8609 77.6191 41C77.6191 8.13906 50.9801 -18.5 18.1191 -18.5C-14.7418 -18.5 -41.3809 8.13906 -41.3809 41C-41.3809 73.8609 -14.7418 100.5 18.1191 100.5Z" stroke="#F2AD4E"/>
</g>
<path d="M338.119 182C333.172 182.009 328.275 181.02 323.719 179.092C319.323 177.235 315.328 174.542 311.958 171.163C308.579 167.793 305.886 163.798 304.029 159.402C302.1 154.846 301.11 149.948 301.119 145C301.11 140.053 302.099 135.156 304.027 130.6C305.884 126.204 308.577 122.209 311.956 118.839C315.326 115.46 319.321 112.767 323.717 110.91C328.273 108.981 333.172 107.991 338.119 108C343.066 107.991 347.964 108.98 352.519 110.908C356.916 112.765 360.91 115.458 364.28 118.837C367.659 122.207 370.352 126.202 372.209 130.598C374.138 135.154 375.128 140.052 375.119 145C375.128 149.947 374.139 154.844 372.211 159.4C370.354 163.796 367.661 167.791 364.282 171.161C360.912 174.54 356.918 177.233 352.521 179.09C347.965 181.019 343.067 182.009 338.119 182ZM338.119 137.929L331.048 145L338.119 152.07L345.19 145L338.119 137.929Z" fill="#F2AD4E"/>
<path d="M284.119 285C278.772 285.001 273.438 284.464 268.198 283.395C258.093 281.325 248.494 277.286 239.949 271.508C227.248 262.934 217.306 250.86 211.327 236.75C209.306 231.971 207.762 227.004 206.719 221.921C204.579 211.415 204.579 200.585 206.719 190.079C208.79 179.973 212.831 170.374 218.611 161.83C227.185 149.129 239.259 139.186 253.369 133.208C258.148 131.189 263.115 129.648 268.198 128.608C278.705 126.468 289.535 126.468 300.041 128.608C310.146 130.677 319.744 134.715 328.289 140.492C340.99 149.066 350.933 161.14 356.911 175.25C358.93 180.029 360.471 184.996 361.511 190.079C363.651 200.585 363.651 211.415 361.511 221.921C359.442 232.026 355.402 241.625 349.624 250.169C341.05 262.87 328.976 272.813 314.866 278.791C310.087 280.81 305.12 282.351 300.037 283.391C294.799 284.461 289.466 285 284.119 285ZM284.09 189.42L267.539 205.971L284.09 222.522L300.642 205.971L284.09 189.42Z" fill="url(#paint2_linear_110_179)"/>
<g opacity="0.2">
<path d="M284.119 277.5C327.473 277.5 362.619 242.354 362.619 199C362.619 155.646 327.473 120.5 284.119 120.5C240.765 120.5 205.619 155.646 205.619 199C205.619 242.354 240.765 277.5 284.119 277.5Z" stroke="#F2AD4E"/>
</g>
</g>
<path d="M357.119 196H18.1191C14.8054 196 12.1191 198.686 12.1191 202V325C12.1191 328.314 14.8054 331 18.1191 331H357.119C360.433 331 363.119 328.314 363.119 325V202C363.119 198.686 360.433 196 357.119 196Z" fill="white"/>
<path d="M357.119 196.5H18.1191C15.0816 196.5 12.6191 198.962 12.6191 202V325C12.6191 328.038 15.0816 330.5 18.1191 330.5H357.119C360.157 330.5 362.619 328.038 362.619 325V202C362.619 198.962 360.157 196.5 357.119 196.5Z" stroke="white" stroke-opacity="0.2"/>
<defs>
<linearGradient id="paint0_linear_110_179" x1="187.619" y1="0" x2="187.619" y2="303" gradientUnits="userSpaceOnUse">
<stop stop-color="#EC712E"/>
<stop offset="0.744" stop-color="#E88652"/>
<stop offset="0.907" stop-color="#F76C11" stop-opacity="0.361"/>
<stop offset="1" stop-color="#EEBC95" stop-opacity="0"/>
</linearGradient>
<linearGradient id="paint1_linear_110_179" x1="18.1181" y1="-19.006" x2="18.1181" y2="101" gradientUnits="userSpaceOnUse">
<stop stop-color="#F2AD4E"/>
<stop offset="1" stop-color="#ED7731" stop-opacity="0.192"/>
</linearGradient>
<linearGradient id="paint2_linear_110_179" x1="284.115" y1="127.003" x2="284.115" y2="285" gradientUnits="userSpaceOnUse">
<stop stop-color="#F2AD4E"/>
<stop offset="1" stop-color="#ED7731" stop-opacity="0.192"/>
</linearGradient>
</defs>
</svg>
