<svg width="28" height="27" viewBox="0 0 28 27" fill="none" xmlns="http://www.w3.org/2000/svg">
<path d="M13.6191 27C21.075 27 27.1191 20.9558 27.1191 13.5C27.1191 6.04416 21.075 0 13.6191 0C6.1633 0 0.119141 6.04416 0.119141 13.5C0.119141 20.9558 6.1633 27 13.6191 27Z" fill="white"/>
<path d="M17.6131 15.464C18.4283 14.6118 18.9757 13.5394 19.1878 12.3794C19.3998 11.2193 19.2672 10.0226 18.8063 8.93713C18.3454 7.85168 17.5765 6.92513 16.5946 6.27206C15.6127 5.619 14.4609 5.26807 13.2817 5.26268C12.1024 5.25729 10.9475 5.59768 9.95964 6.24174C8.97181 6.88581 8.19443 7.8053 7.72365 8.8865C7.25286 9.9677 7.10931 11.1632 7.31077 12.3251C7.51223 13.487 8.04984 14.5644 8.85713 15.424L6.02414 18.256L8.28813 18.595L8.62715 20.859L12.2431 17.242C12.8895 17.3526 13.5495 17.3566 14.1971 17.254L17.7971 20.854L18.1362 18.59L20.4001 18.251L17.6131 15.464ZM13.2541 8.304C13.8464 8.3038 14.4254 8.47926 14.9179 8.80816C15.4104 9.13707 15.7943 9.60467 16.021 10.1518C16.2478 10.6989 16.3072 11.301 16.1917 11.8818C16.0762 12.4627 15.791 12.9963 15.3722 13.4151C14.9534 13.8339 14.4199 14.119 13.839 14.2345C13.2581 14.35 12.6561 14.2906 12.1089 14.0639C11.5618 13.8372 11.0942 13.4533 10.7653 12.9608C10.4364 12.4682 10.261 11.8892 10.2612 11.297C10.2614 10.5033 10.5768 9.74216 11.1381 9.18092C11.6993 8.61968 12.4604 8.30426 13.2541 8.304Z" fill="url(#paint0_linear_8162_10157)"/>
<defs>
<linearGradient id="paint0_linear_8162_10157" x1="13.2121" y1="5.26262" x2="13.2121" y2="20.859" gradientUnits="userSpaceOnUse">
<stop stop-color="#FFD878"/>
<stop offset="1" stop-color="#FF9752"/>
</linearGradient>
</defs>
</svg>
