<?xml version="1.0" standalone="no"?><!DOCTYPE svg PUBLIC "-//W3C//DTD SVG 1.1//EN" "http://www.w3.org/Graphics/SVG/1.1/DTD/svg11.dtd"><svg t="1737769388019" class="icon" viewBox="0 0 1024 1024" version="1.1" xmlns="http://www.w3.org/2000/svg" p-id="19252" xmlns:xlink="http://www.w3.org/1999/xlink" width="40" height="40"><path d="M477.003593 171.497445a41.804655 41.804655 0 0 0 83.109409-5.36053l-0.282986-123.354524a41.797175 41.797175 0 0 0-83.571911-1.96719l0.28174 123.348291a43.404088 43.404088 0 0 0 0.463748 7.333953z" fill="#1296db" p-id="19253"></path><path d="M510.287498 297.133311c-141.673824 0-256.541258 114.836268-256.541258 256.516325v315.190444h516.741389V553.649636c0-141.680057-114.837514-256.516325-256.518818-256.516325z m154.436872 155.785731a15.297457 15.297457 0 0 1 5.057598 11.7994l-48.888034 288.270609c0 3.365914-3.365914 6.743048-6.741802 8.428499a8.427252 8.427252 0 0 1-10.116442 0l-85.974177-35.404432-45.517133 55.634823a9.273717 9.273717 0 0 1-8.427252 5.057598h-3.365915c-1.68545 0-4.500352-2.080634-5.556251-4.510325a19.719271 19.719271 0 0 1-1.186797-7.291568v-65.746278l161.829417-198.921793L415.227846 683.871872l-74.174777-30.345587c-5.057598-1.684204-6.743048-5.057598-6.743048-10.113949s1.68545-8.427252 6.743048-11.7994l311.131401-178.985606c5.632297-2.851054 10.85445-1.394984 12.5399 0.291712z" fill="#1296db" p-id="19254"></path><path d="M710.824929 282.556409a41.815875 41.815875 0 0 0 58.990764-3.749878l81.50125-92.632453a41.795929 41.795929 0 0 0-62.741888-55.2359l-81.522443 92.6337a41.762269 41.762269 0 0 0 3.772317 58.984531z" fill="#1296db" p-id="19255"></path><path d="M212.462679 450.768597a41.799668 41.799668 0 0 0-32.741619-49.207173l-120.969712-24.278215a41.805902 41.805902 0 1 0-16.455581 81.974972l120.972205 24.275721a41.785955 41.785955 0 0 0 49.194707-32.765305z" fill="#1296db" p-id="19256"></path><path d="M184.741258 170.485177l77.058244 96.364879a41.797175 41.797175 0 1 0 65.27131-52.225276L249.998856 118.288574a41.784709 41.784709 0 1 0-65.257598 52.202837z" fill="#1296db" p-id="19257"></path><path d="M802.193295 904.940133H208.948415a59.52931 59.52931 0 1 0 0 119.053634h593.2374a59.52183 59.52183 0 0 0 59.555489-59.524324h0.00748a59.52931 59.52931 0 0 0-59.555489-59.52931z" fill="#1296db" p-id="19258"></path><path d="M1015.042492 433.712138h0.00748a41.772242 41.772242 0 0 0-47.601507-35.030441l-121.984473 18.57486a41.793435 41.793435 0 1 0 12.579793 82.635688l121.954553-18.57486a41.788449 41.788449 0 0 0 35.044154-47.605247z" fill="#1296db" p-id="19259"></path></svg>