<?xml version="1.0" standalone="no"?><!DOCTYPE svg PUBLIC "-//W3C//DTD SVG 1.1//EN" "http://www.w3.org/Graphics/SVG/1.1/DTD/svg11.dtd"><svg t="1737769328316" class="icon" viewBox="0 0 1024 1024" version="1.1" xmlns="http://www.w3.org/2000/svg" p-id="15380" xmlns:xlink="http://www.w3.org/1999/xlink" width="40" height="40"><path d="M64 160m96 0l672 0q96 0 96 96l0 480q0 96-96 96l-672 0q-96 0-96-96l0-480q0-96 96-96Z" fill="#3F86FF" p-id="15381"></path><path d="M64 272h864v96H64z" fill="#FFFFFF" opacity=".75" p-id="15382"></path><path d="M784 688m-176 0a176 176 0 1 0 352 0 176 176 0 1 0-352 0Z" fill="#3F86FF" p-id="15383"></path><path d="M368 512H240a48 48 0 0 0-48 48v16h224V560a48 48 0 0 0-48-48zM192 656a48 48 0 0 0 48 48h128a48 48 0 0 0 48-48V600H192z" fill="#FFFFFF" opacity=".75" p-id="15384"></path><path d="M816 648h-70l23.1-23a24 24 0 1 0-34-34l-64 64a24.2 24.2 0 0 0 0 34l64 64a24 24 0 0 0 34-34l-23.1-23h70a40 40 0 0 1 40 40v32a24 24 0 1 0 48 0v-32a88.1 88.1 0 0 0-88-88z" fill="#FFFFFF" p-id="15385"></path></svg>