<?xml version="1.0" standalone="no"?><!DOCTYPE svg PUBLIC "-//W3C//DTD SVG 1.1//EN" "http://www.w3.org/Graphics/SVG/1.1/DTD/svg11.dtd"><svg t="1737765431087" class="icon" viewBox="0 0 1024 1024" version="1.1" xmlns="http://www.w3.org/2000/svg" p-id="4188" xmlns:xlink="http://www.w3.org/1999/xlink" width="40" height="40"><path d="M152 152v210c0 18-12 30-30 30S92 380 92 362v-240c0-18 12-30 30-30h240c18 0 30 12 30 30s-12 30-30 30H152zM152 872h210c18 0 30 12 30 30s-12 30-30 30h-240c-18 0-30-12-30-30v-240c0-18 12-30 30-30s30 12 30 30V872zM872 152h-210c-18 0-30-12-30-30s12-30 30-30h240c18 0 30 12 30 30v240c0 18-12 30-30 30s-30-12-30-30V152zM872 872v-210c0-18 12-30 30-30s30 12 30 30v240c0 18-12 30-30 30h-240c-18 0-30-12-30-30s12-30 30-30H872zM302 482h420c18 0 30 12 30 30s-12 30-30 30h-420c-18 0-30-12-30-30s12-30 30-30z" p-id="4189"></path></svg>