<?xml version="1.0" standalone="no"?><!DOCTYPE svg PUBLIC "-//W3C//DTD SVG 1.1//EN" "http://www.w3.org/Graphics/SVG/1.1/DTD/svg11.dtd"><svg t="1743518795478" class="icon" viewBox="0 0 1024 1024" version="1.1" xmlns="http://www.w3.org/2000/svg" p-id="2680" xmlns:xlink="http://www.w3.org/1999/xlink" width="40" height="40"><path d="M848.8448 608.7168c-35.7888 0-70.8096-10.24-100.9152-28.8768-30.1056 18.6368-65.1264 28.8768-100.9152 28.8768s-70.7584-10.24-100.9152-28.8768c-30.1056 18.6368-65.1264 28.8768-100.9152 28.8768s-70.7584-10.24-100.9152-28.8768c-30.1056 18.6368-65.1264 28.8768-100.9152 28.8768-17.8176 0-35.1232-2.4576-51.6608-7.0656v198.9632c0 63.7952 39.9872 113.7664 91.0336 113.7664H819.712c51.0464 0 91.0336-49.9712 91.0336-113.7664v-201.984a193.90976 193.90976 0 0 1-61.9008 10.0864zM980.224 392.2944l-83.0976-232.0896c-12.288-34.4064-45.1072-57.5488-81.664-57.5488H276.1728c-36.6592 0-69.4784 23.1936-81.7152 57.7536L113.7152 387.9424c-8.2944 23.3472-9.1648 48.896-1.3312 72.3968 18.2784 54.8864 70.144 94.5664 131.072 94.5664 38.9632 0 75.264-16.5888 100.9152-44.032 25.6512 27.4432 61.952 44.032 100.9152 44.032 38.9632 0 75.264-16.5888 100.9152-44.032 25.6512 27.4432 61.952 44.032 100.9152 44.032 38.9632 0 75.264-16.5888 100.9152-44.032 25.6 27.4432 61.952 44.032 100.9152 44.032 76.1344 0 136.5504-60.3136 137.8304-136.448 0-5.4272-5.376-22.8352-6.5536-26.1632z m-228.864-18.432H340.8896a33.28 33.28 0 1 1 0-66.56h410.4704a33.28 33.28 0 1 1 0 66.56z" fill="#6893DF" p-id="2681"></path></svg>