<?xml version="1.0" standalone="no"?><!DOCTYPE svg PUBLIC "-//W3C//DTD SVG 1.1//EN" "http://www.w3.org/Graphics/SVG/1.1/DTD/svg11.dtd"><svg t="1737769449125" class="icon" viewBox="0 0 1024 1024" version="1.1" xmlns="http://www.w3.org/2000/svg" p-id="23789" xmlns:xlink="http://www.w3.org/1999/xlink" width="40" height="40"><path d="M513.08309 726.48892c-115.618713 0-209.986634-94.367921-209.986634-210.346817s94.007738-210.346817 209.986634-210.346816c115.618713 0 209.986634 94.367921 209.986634 210.346816s-94.007738 210.346817-209.986634 210.346817z m0-351.178333c-77.439325 0-140.831516 63.392191-140.831516 140.831516 0 77.799508 63.032008 140.831516 140.831516 140.831516 77.439325 0 140.831516-63.392191 140.831516-140.831516s-63.032008-140.831516-140.831516-140.831516z" fill="#040000" p-id="23790"></path><path d="M592.323329 76.358776V122.462188c0 33.857193 20.170243 64.47274 51.506155 77.439324 10.085121 4.322195 20.890609 6.483292 32.056279 6.483293 22.33134 0 43.221949-8.64439 59.069996-24.492438l29.534999-29.534998 112.016883 112.377066-29.534998 29.534999c-24.132255 24.132255-30.97573 59.790362-18.009145 91.126275 12.966585 31.335913 43.221949 51.506155 77.079141 51.506155h44.662681v158.840662h-44.662681c-33.857193 0-64.112557 20.170243-77.079141 51.506155-12.966585 31.335913-5.762926 67.354203 18.009145 91.126275l29.534998 29.534998-112.016883 112.377067-29.534999-29.534998c-15.848048-15.848048-36.738656-24.492438-59.069996-24.492438-11.16567 0-21.610974 2.161097-32.056279 6.483292-31.335913 12.966585-51.506155 43.221949-51.506155 77.439325v44.66268h-158.480478v-44.66268c0-33.857193-20.170243-64.47274-51.506156-77.439325-10.085121-4.322195-20.890609-6.483292-32.056279-6.483292-22.33134 0-43.221949 8.64439-59.069996 24.492438l-29.534998 29.534998-112.016884-112.377067 29.534998-29.534998c24.132255-24.132255 30.97573-59.790362 18.009146-91.126275-12.966585-31.335913-43.221949-51.506155-77.079142-51.506155H75.46086v-158.840662h44.66268c33.857193 0 64.112557-20.170243 77.079142-51.506155 12.966585-31.335913 5.762926-67.354203-18.009146-91.126275l-29.534998-29.534999 112.016884-112.377066 29.534998 29.534998c15.848048 15.848048 36.738656 24.492438 59.069996 24.492438 11.16567 0 21.610974-2.161097 32.056279-6.483293 31.335913-12.966585 51.506155-43.221949 51.506156-77.439324V76.358776h158.480478z m0-69.155118h-158.480478C396.023645 7.203658 364.687733 42.501583 364.687733 80.680971V122.462188a14.497362 14.497362 0 0 1-14.407317 14.407316c-3.601829 0-7.563841-1.440732-10.085121-4.322195L310.660297 103.012311c-13.326767-13.326767-31.335913-20.170243-48.984875-20.170243s-35.297925 6.843475-48.984875 20.170243L100.673663 215.389377c-27.013718 27.013718-27.013718 70.956032 0 97.969751l29.534998 29.534998c3.962012 3.962012 5.402744 10.445304 3.241646 15.848048-2.161097 5.402744-7.563841 9.004573-13.326767 9.004572H78.342323c-38.179388 0-72.036581 31.335913-72.036581 69.155118v158.840662c0 38.179388 33.857193 69.155118 72.036581 69.155117h41.781217c5.762926 0 11.16567 3.601829 13.326767 9.004573 2.161097 5.402744 1.080549 11.525853-3.241646 15.848048l-29.534998 29.534998c-27.013718 27.013718-27.013718 70.956032 0 97.96975l112.016884 112.377067c13.326767 13.326767 31.335913 20.170243 48.984875 20.170242s35.297925-6.843475 48.984875-20.170242l29.534998-29.534998c2.881463-2.881463 6.483292-4.322195 10.085121-4.322195a14.497362 14.497362 0 0 1 14.407317 14.407316v41.781217c0 38.179388 30.97573 72.036581 69.155118 72.036581h158.480478c38.179388 0 69.155118-34.217376 69.155118-72.036581v-41.781217a14.497362 14.497362 0 0 1 14.407316-14.407316c3.601829 0 7.563841 1.440732 10.085121 4.322195l29.534999 29.534998c13.326767 13.326767 31.335913 20.170243 48.984875 20.170242s35.297925-6.843475 48.984875-20.170242l112.016883-112.377067c27.013718-27.013718 27.013718-70.956032 0-97.96975l-29.534998-29.534998c-3.962012-3.962012-5.402744-10.445304-3.241646-15.848048 2.161097-5.402744 7.563841-9.004573 13.326767-9.004573H948.184039c38.179388 0 72.036581-31.335913 72.036581-69.155117v-158.840662c0-38.179388-33.857193-69.155118-72.036581-69.155118h-41.781217c-5.762926 0-11.16567-3.601829-13.326767-9.004572-2.161097-5.402744-1.080549-11.525853 3.241646-15.848048l29.534998-29.534998c27.013718-27.013718 27.013718-70.956032 0-97.969751l-112.016883-112.377066C800.509048 89.685543 782.499903 82.842068 764.850941 82.842068s-35.297925 6.843475-48.984876 20.170243l-29.534998 29.534998c-2.881463 2.881463-6.483292 4.322195-10.085121 4.322195a14.497362 14.497362 0 0 1-14.407316-14.407316V80.680971C661.478447 42.501583 630.502717 7.203658 592.323329 7.203658" fill="#040000" p-id="23791"></path></svg>