<?xml version="1.0" standalone="no"?><!DOCTYPE svg PUBLIC "-//W3C//DTD SVG 1.1//EN" "http://www.w3.org/Graphics/SVG/1.1/DTD/svg11.dtd"><svg t="1737769287615" class="icon" viewBox="0 0 1024 1024" version="1.1" xmlns="http://www.w3.org/2000/svg" p-id="11562" xmlns:xlink="http://www.w3.org/1999/xlink" width="40" height="40"><path d="M256.001966 102.401671v63.999124C256.001966 215.859319 296.142217 255.99957 345.600741 255.99957h332.795447A89.598774 89.598774 0 0 0 767.994962 166.400795V102.401671a153.597899 153.597899 0 0 1 153.597898 153.597899v511.992995s0 51.1993 51.1993 51.1993 51.1993-51.1993 51.199299-51.1993V255.99957a255.996498 255.996498 0 0 0-255.996497-255.996498h-25.59965c-4.40314 0-8.703881 0.563192-12.799825 1.638378A51.301698 51.301698 0 0 0 665.596363 51.202371v102.3986H358.400565V51.202371A51.1993 51.1993 0 0 0 302.54213 0.207869 51.86489 51.86489 0 0 0 297.985392 0.003072H256.001966a255.996498 255.996498 0 0 0-255.996497 255.996498v409.594396a358.395097 358.395097 0 0 0 358.395096 358.395097h409.594397s51.1993 0 51.199299-51.1993-51.1993-51.1993-51.199299-51.199299H358.400565a255.996498 255.996498 0 0 1-255.996497-255.996498V255.99957a153.597899 153.597899 0 0 1 153.597898-153.597899z" fill="#000000" p-id="11563"></path><path d="M680.597757 322.200264a51.1993 51.1993 0 1 1 72.39581 72.395809l-255.996498 255.996498a51.1993 51.1993 0 0 1-72.395809-72.395809l255.996497-255.996498z" fill="#0088FF" p-id="11564"></path><path d="M307.201266 767.992565a51.1993 51.1993 0 1 1 0-102.398599h307.195797a51.1993 51.1993 0 1 1 0 102.398599H307.201266z" fill="#0088FF" p-id="11565"></path></svg>