<?xml version="1.0" standalone="no"?><!DOCTYPE svg PUBLIC "-//W3C//DTD SVG 1.1//EN" "http://www.w3.org/Graphics/SVG/1.1/DTD/svg11.dtd"><svg t="1737616545650" class="icon" viewBox="0 0 1024 1024" version="1.1" xmlns="http://www.w3.org/2000/svg" p-id="4538" xmlns:xlink="http://www.w3.org/1999/xlink" width="40" height="40"><path d="M512 64.383234C264.7878 64.383234 64.383234 264.7878 64.383234 512s200.404567 447.616766 447.616766 447.616766 447.616766-200.404567 447.616766-447.616766S759.2122 64.383234 512 64.383234zM749.24404 399.346715 490.771928 730.197844c-25.757381 32.969325-73.223154 32.730188-98.382691-0.833916L268.525094 564.127936c-14.827561-19.780982-10.813317-47.835721 8.967665-62.664303 19.780982-14.827561 47.836743-10.813317 62.664303 8.967665l101.483305 142.855154 237.057022-309.05485c15.21897-19.480527 43.349333-22.93576 62.830882-7.71679C761.008798 351.734802 764.46301 379.865166 749.24404 399.346715z" p-id="4539" fill="#bfbfbf"></path></svg>