<?xml version="1.0" encoding="utf-8"?>
<svg version="1.1" xmlns:xlink="http://www.w3.org/1999/xlink" width="18px" height="18px" xmlns="http://www.w3.org/2000/svg">
  <g transform="matrix(1 0 0 1 -39 -270 )">
    <path d="M 17.058913048828124 4.7336086933593755  C 14.246217404296877 6.5664782578125  7.705173919921876 10.82621738671875  6.8623043554687495 11.334521742187501  C 5.784652177734374 11.98526087109375  5.625 10.969043484375  5.625 10.969043484375  L 4.2749999999999995 7.5564782578125005  C 3.755347822265625 5.934521742187501  4.72421738671875 6.825130435546875  4.72421738671875 6.825130435546875  C 4.72421738671875 6.825130435546875  5.556130435546875 7.50678261328125  6.18730435546875 7.921956515625  C 6.818086968749999 8.337130435546875  7.537304355468749 8.04365216015625  7.537304355468749 8.043652177734376  L 16.364347822265625 3.6305217421875002  C 14.735739128906252 1.43530435546875  12.0455217421875 0  9 0  C 4.028869564453125 0  0 3.8195217421875003  0 8.531608693359376  C 0 11.242173902343751  1.334347822265625 13.65417390234375  3.412173919921875 15.217434791015624  L 3.0373043554687493 17.551173919921876  C 3.0373043554687493 17.551173919921876  2.8545652265624994 18.232043484374998  3.4876956445312497 17.91626087109375  C 3.9193043378906247 17.701043484375  5.018869564453125 16.928608693359376  5.6739130488281235 16.459434791015624  C 6.7370633781885925 16.859853546287198  7.8639443822126545 17.064415588003655  9 17.06321738671875  C 13.970347822265625 17.06321738671875  18 13.244086951171877  18 8.531608693359376  C 18 7.167130435546875  17.660347822265624 5.87817390234375  17.058913048828124 4.7336086933593755  Z " fill-rule="nonzero" fill="#41b035" stroke="none" transform="matrix(1 0 0 1 39 270 )" />
  </g>
</svg>