<?xml version="1.0" encoding="utf-8"?>
<svg version="1.1" xmlns:xlink="http://www.w3.org/1999/xlink" width="18px" height="18px" xmlns="http://www.w3.org/2000/svg">
  <g transform="matrix(1 0 0 1 -39 -319 )">
    <path d="M 5.82573912890625 6.532434791015625  L 3.36678261328125 12.54130435546875  L 13.141565208984375 12.54130435546875  L 10.687304355468749 6.507391306640625  L 8.254173919921874 12.462260871093749  L 5.826521742187498 6.532434791015625  Z M 15.397043484374999 11.102869564453124  L 17.349652177734374 11.102869564453124  C 17.31273640789402 11.249206139611305  17.272027032071797 11.394559475124868  17.227565208984373 11.53878261328125  L 15.571565208984374 11.53878261328125  L 15.397043484374999 11.103652177734373  Z M 15.243652177734372 10.719391306640624  L 15.069130435546873 10.285043484375  L 17.513217386718747 10.285043484375  C 17.49130433789062 10.431391306640624  17.46626087109375 10.575391306640626  17.436521742187498 10.719391306640624  L 15.243652177734372 10.719391306640624  Z M 14.740434791015623 9.46721738671875  L 17.59539130664062 9.46721738671875  C 17.5875652265625 9.612782595703123  17.576608693359372 9.757565208984374  17.5625217421875 9.901565208984374  L 14.914956515624999 9.901565208984374  L 14.739652177734374 9.46721738671875  Z M 14.411739128906248 8.648608693359375  L 17.600869564453124 8.648608693359375  C 17.606347822265626 8.766  17.60869564453125 8.882608693359375  17.60869564453125 9.000782613281249  L 17.60869564453125 9.083739128906249  L 14.584695644531248 9.083739128906249  L 14.410956515624997 8.648608693359373  Z M 14.083043484374999 7.831565208984374  L 17.530434791015626 7.831565208984374  C 17.549217404296876 7.973999999999999  17.565652177734375 8.119565208984374  17.577391306640624 8.265913048828123  L 14.257565208984374 8.265913048828123  L 14.083826080078126 7.829999999999999  L 14.083826080078126 7.831565208984374  Z M 13.755130435546873 7.012173919921874  L 17.377043484374997 7.012173919921874  C 17.411478275390625 7.156173919921875  17.441999999999997 7.30173912890625  17.46860869335937 7.4473043554687495  L 13.928869564453121 7.4473043554687495  L 13.75434782226562 7.012173919921874  Z M 7.516173919921874 17.478782613281247  C 3.396110807130953 16.760440049343444  0.3896468618407227 13.18299893304043  0.39130435546875003 9.000782613281249  C 0.38850811488029935 4.70848981438695  3.5502047725403822 1.070935764396478  7.801043484374999 0.475826080078125  C 12.052223628235582 -0.12313524533875528  16.094915943330584 2.5016601122480617  17.277652177734375 6.62869564453125  L 13.60173912890625 6.62869564453125  L 11.457391306640625 1.2858260800781254  L 9.050869564453125 7.262608693359375  L 6.595826080078125 1.3398260800781254  L 2.0473043554687496 12.540521742187499  L 3.903652177734375 15  L 14.176173919921874 15  L 15.95269564453125 12.488086951171873  L 15.72573912890625 11.921478257812499  L 17.099999999999998 11.921478257812495  C 15.67974533255718 15.856244033471976  11.636655311613888 18.200681588494596  7.516173919921874 17.478782613281247  Z " fill-rule="nonzero" fill="#c7162e" stroke="none" transform="matrix(1 0 0 1 39 319 )" />
  </g>
</svg>