<?xml version="1.0" encoding="utf-8"?>
<svg version="1.1" xmlns:xlink="http://www.w3.org/1999/xlink" width="18px" height="18px" xmlns="http://www.w3.org/2000/svg">
  <g transform="matrix(1 0 0 1 -39 -222 )">
    <path d="M 13.602202947111536 6.771274000687157  C 13.268398484357462 8.164392244257868  12.76133152362739 9.446973384358216  12.12574324459051 10.572960325303853  C 13.184179736345037 10.963349247019153  14.133833702753428 11.332683494914932  14.84157812824516 11.574373731144192  C 17.388975533453085 12.443976037429081  17.966663419935514 12.491129744441054  17.966663419935514 12.491129744441054  L 17.966663419935514 3.266765777511381  C 17.966663419935514 1.4627019897319258  16.50418076719582 0  14.700116979416379 0  L 3.266765777511374 0  C 1.4627019897319258 0  0 1.462482660103035  0 3.26654644788249  L 0 14.700116972053024  C 0 16.50418075983245  1.4624826674663964 17.966663427298386  3.2665464552458445 18  L 14.700116972053024 18  C 16.31430938740833 17.966663419935514  17.651501121236308 16.794838687993007  17.916000591831235 15.256311540184868  C 17.41156546313134 15.041378303944668  13.222560693360585 13.252826796863815  11.041646364174618 12.183862959410476  C 9.483380458562067 14.13843943517341  7.472877473056386 15.32430061632894  5.38605127078506 15.324519938594477  C 1.8563212859008544 15.324519938594477  0.6579588586567056 12.175748123476296  2.328955072816889 10.103177692683516  C 2.693244961339744 9.651598597165133  3.313480857570397 9.219977581716705  4.275416712645637 8.978068040800025  C 5.779949313592674 8.601057619079256  8.17557753917518 9.21295935711018  10.420094551928884 9.968296134144964  C 10.838746204598749 9.178342252063942  11.172795145752623 8.346381019394727  11.416682920661827 7.486255973050902  L 4.498684089507428 7.486255973050902  L 4.498684089507428 6.771274000687157  L 8.0656984200795 6.771274000687157  L 8.0656984200795 5.491105370351448  L 3.7451018730188252 5.491105370351448  L 3.7451018730188252 4.77612341556582  L 8.0656984200795 4.77612341556582  L 8.0656984200795 2.949410273734941  C 8.0656984200795 2.949410273734941  8.0656984200795 2.642362810969928  8.371649289094975 2.642362810969928  L 10.11524027666296 2.642362810969928  L 10.11524027666296 4.77612341556582  L 14.387367183118464 4.77612341556582  L 14.387367183118464 5.491105370351448  L 10.115020954397423 5.491105370351448  L 10.115020954397423 6.771274000687157  L 13.602202947111536 6.771274000687157  Z M 5.056413873046878 14.119139285156251  C 6.655911873046875 14.119139285156251  8.254751923828124 13.076274480468754  9.510356759765628 11.407252166015638  C 7.724437083984377 10.518130423828126  6.211351001953126 9.882542162109388  4.575665267578124 10.04747051953126  C 4.13329758398438 10.091334445312498  3.3042694218749986 10.291353943359383  2.8507164433593744 10.70016570703126  C 1.4909347968750026 11.908836140624999  2.3041719492187482 14.11891996289063  5.056413873046878 14.119139285156251  Z " fill-rule="nonzero" fill="#00a0e9" stroke="none" transform="matrix(1 0 0 1 39 222 )" />
  </g>
</svg>